<svg width="350" height="60" viewBox="0 0 627 60" fill="none" xmlns="http://www.w3.org/2000/svg">
<path d="M7.03 13.5V59H0.998749V13.5H7.03ZM34.91 13.5V59H28.8787V13.5H34.91ZM62.3787 13.5L43.4725 34.7188L32.8475 45.75L31.8475 39.3125L39.8475 30.5L55.1287 13.5H62.3787ZM56.5662 59L39.7225 36.8125L43.3162 32.0312L63.7537 59H56.5662ZM123.482 41.1562H111.326V36.25H123.482C125.837 36.25 127.743 35.875 129.201 35.125C130.66 34.375 131.722 33.3333 132.389 32C133.076 30.6667 133.42 29.1458 133.42 27.4375C133.42 25.875 133.076 24.4062 132.389 23.0312C131.722 21.6562 130.66 20.5521 129.201 19.7188C127.743 18.8646 125.837 18.4375 123.482 18.4375H112.732V59H106.701V13.5H123.482C126.92 13.5 129.826 14.0938 132.201 15.2812C134.576 16.4688 136.378 18.1146 137.607 20.2188C138.837 22.3021 139.451 24.6875 139.451 27.375C139.451 30.2917 138.837 32.7812 137.607 34.8438C136.378 36.9062 134.576 38.4792 132.201 39.5625C129.826 40.625 126.92 41.1562 123.482 41.1562ZM157.956 13.5H173.019C176.435 13.5 179.321 14.0208 181.675 15.0625C184.05 16.1042 185.852 17.6458 187.081 19.6875C188.331 21.7083 188.956 24.1979 188.956 27.1562C188.956 29.2396 188.529 31.1458 187.675 32.875C186.842 34.5833 185.633 36.0417 184.05 37.25C182.488 38.4375 180.613 39.3229 178.425 39.9062L176.738 40.5625H162.581L162.519 35.6562H173.206C175.373 35.6562 177.175 35.2812 178.613 34.5312C180.05 33.7604 181.133 32.7292 181.863 31.4375C182.592 30.1458 182.956 28.7188 182.956 27.1562C182.956 25.4062 182.613 23.875 181.925 22.5625C181.238 21.25 180.154 20.2396 178.675 19.5312C177.217 18.8021 175.331 18.4375 173.019 18.4375H163.988V59H157.956V13.5ZM184.55 59L173.488 38.375L179.769 38.3438L190.988 58.625V59H184.55ZM237.18 54.0938V59H213.086V54.0938H237.18ZM214.305 13.5V59H208.274V13.5H214.305ZM233.992 33.0625V37.9688H213.086V33.0625H233.992ZM236.867 13.5V18.4375H213.086V13.5H236.867ZM288.315 13.5V59H282.284V13.5H288.315ZM315.784 13.5L296.878 34.7188L286.253 45.75L285.253 39.3125L293.253 30.5L308.534 13.5H315.784ZM309.971 59L293.128 36.8125L296.721 32.0312L317.159 59H309.971ZM350.195 17.5312L335.133 59H328.976L346.32 13.5H350.289L350.195 17.5312ZM362.82 59L347.726 17.5312L347.633 13.5H351.601L369.008 59H362.82ZM362.039 42.1562V47.0938H336.476V42.1562H362.039ZM416.513 54.0938V59H385.7V54.0938H416.513ZM415.513 17.875L387.138 59H383.419V54.5L411.763 13.5H415.513V17.875ZM412.95 13.5V18.4375H383.825V13.5H412.95ZM395.2 1.3125L399.919 6.625L404.638 1.3125H409.638V1.625L401.7 10.1875H398.138L390.325 1.625V1.3125H395.2ZM447.549 59H438.049L438.111 54.0938H447.549C450.799 54.0938 453.507 53.4167 455.674 52.0625C457.84 50.6875 459.465 48.7708 460.549 46.3125C461.653 43.8333 462.205 40.9375 462.205 37.625V34.8438C462.205 32.2396 461.892 29.9271 461.267 27.9062C460.642 25.8646 459.726 24.1458 458.517 22.75C457.309 21.3333 455.83 20.2604 454.08 19.5312C452.351 18.8021 450.361 18.4375 448.111 18.4375H437.861V13.5H448.111C451.09 13.5 453.809 14 456.267 15C458.726 15.9792 460.84 17.4062 462.611 19.2812C464.403 21.1354 465.778 23.3854 466.736 26.0312C467.695 28.6562 468.174 31.6146 468.174 34.9062V37.625C468.174 40.9167 467.695 43.8854 466.736 46.5312C465.778 49.1562 464.392 51.3958 462.58 53.25C460.788 55.1042 458.622 56.5312 456.08 57.5312C453.559 58.5104 450.715 59 447.549 59ZM441.267 13.5V59H435.236V13.5H441.267ZM517.022 54.0938V59H492.929V54.0938H517.022ZM494.147 13.5V59H488.116V13.5H494.147ZM513.835 33.0625V37.9688H492.929V33.0625H513.835ZM516.71 13.5V18.4375H492.929V13.5H516.71ZM498.991 10.125L505.054 0.9375H512.022L503.647 10.125H498.991ZM565.09 33.0625V37.9688H540.465V33.0625H565.09ZM541.402 13.5V59H535.371V13.5H541.402ZM570.34 13.5V59H564.34V13.5H570.34ZM626.97 34.8125V37.6875C626.97 41.1042 626.543 44.1667 625.689 46.875C624.835 49.5833 623.605 51.8854 622.001 53.7812C620.397 55.6771 618.47 57.125 616.22 58.125C613.991 59.125 611.491 59.625 608.72 59.625C606.032 59.625 603.564 59.125 601.314 58.125C599.085 57.125 597.147 55.6771 595.501 53.7812C593.876 51.8854 592.616 49.5833 591.72 46.875C590.824 44.1667 590.376 41.1042 590.376 37.6875V34.8125C590.376 31.3958 590.814 28.3438 591.689 25.6562C592.585 22.9479 593.845 20.6458 595.47 18.75C597.095 16.8333 599.022 15.375 601.251 14.375C603.501 13.375 605.97 12.875 608.657 12.875C611.428 12.875 613.928 13.375 616.157 14.375C618.407 15.375 620.335 16.8333 621.939 18.75C623.564 20.6458 624.803 22.9479 625.657 25.6562C626.532 28.3438 626.97 31.3958 626.97 34.8125ZM621.001 37.6875V34.75C621.001 32.0417 620.72 29.6458 620.157 27.5625C619.616 25.4792 618.814 23.7292 617.751 22.3125C616.689 20.8958 615.387 19.8229 613.845 19.0938C612.324 18.3646 610.595 18 608.657 18C606.782 18 605.085 18.3646 603.564 19.0938C602.064 19.8229 600.772 20.8958 599.689 22.3125C598.626 23.7292 597.803 25.4792 597.22 27.5625C596.637 29.6458 596.345 32.0417 596.345 34.75V37.6875C596.345 40.4167 596.637 42.8333 597.22 44.9375C597.803 47.0208 598.637 48.7812 599.72 50.2188C600.824 51.6354 602.126 52.7083 603.626 53.4375C605.147 54.1667 606.845 54.5312 608.72 54.5312C610.678 54.5312 612.418 54.1667 613.939 53.4375C615.46 52.7083 616.741 51.6354 617.782 50.2188C618.845 48.7812 619.647 47.0208 620.189 44.9375C620.73 42.8333 621.001 40.4167 621.001 37.6875Z" fill="white"/>
</svg>
