<svg width="359" height="31" viewBox="0 0 359 31" fill="none" xmlns="http://www.w3.org/2000/svg">
<g clip-path="url(#clip0_1_2)">
<g filter="url(#filter0_d_1_2)">
<path d="M6.42578 2.61719L6.42578 27.5L3.12744 27.5L3.12744 2.61719L6.42578 2.61719ZM20.6226 2.61719L20.6226 27.5L17.3243 27.5L17.3243 2.61719L20.6226 2.61719ZM35.6446 2.61719L25.3053 14.2212L19.4947 20.2539L18.9478 16.7334L23.3228 11.9141L31.6798 2.61719L35.6446 2.61719ZM32.4659 27.5L23.2545 15.3662L25.2198 12.7515L36.3966 27.5L32.4659 27.5ZM61.0818 2.61719L61.0818 27.5L57.7835 27.5L57.7835 2.61719L61.0818 2.61719ZM71.5066 13.811L71.5066 16.5112L60.364 16.5112L60.364 13.811L71.5066 13.811ZM73.1985 2.6172L73.1985 5.31739L60.364 5.31739L60.364 2.61719L73.1985 2.6172ZM101.187 14.2725L101.187 15.8447C101.187 17.7132 100.953 19.388 100.486 20.8691C100.019 22.3503 99.3469 23.6092 98.4696 24.646C97.5923 25.6828 96.5384 26.4746 95.308 27.0215C94.0889 27.5684 92.7217 27.8418 91.2064 27.8418C89.7367 27.8418 88.3866 27.5684 87.1561 27.0215C85.937 26.4746 84.8775 25.6828 83.9774 24.646C83.0887 23.6092 82.3994 22.3503 81.9095 20.8691C81.4196 19.388 81.1747 17.7132 81.1747 15.8447L81.1747 14.2725C81.1747 12.404 81.4139 10.7349 81.8924 9.26514C82.3824 7.78402 83.0716 6.52507 83.9603 5.48829C84.849 4.44011 85.9029 3.64259 87.1219 3.09571C88.3524 2.54884 89.7025 2.2754 91.1722 2.2754C92.6875 2.2754 94.0547 2.54884 95.2738 3.09571C96.5043 3.64259 97.5581 4.44011 98.4354 5.48829C99.3241 6.52507 100.002 7.78402 100.469 9.26514C100.948 10.7349 101.187 12.404 101.187 14.2725ZM97.9227 15.8447L97.9227 14.2383C97.9227 12.7572 97.7689 11.4469 97.4613 10.3076C97.1651 9.1683 96.7264 8.21127 96.1454 7.43653C95.5643 6.66179 94.8522 6.07504 94.0091 5.67628C93.1774 5.27751 92.2318 5.07813 91.1722 5.07813C90.1468 5.07813 89.2183 5.27751 88.3866 5.67628C87.5663 6.07504 86.8599 6.66179 86.2674 7.43653C85.6864 8.21127 85.2364 9.1683 84.9174 10.3076C84.5983 11.4469 84.4388 12.7572 84.4388 14.2383L84.4388 15.8447C84.4388 17.3372 84.5983 18.6589 84.9174 19.8096C85.2364 20.9489 85.6921 21.9116 86.2845 22.6978C86.8884 23.4725 87.6005 24.0592 88.4208 24.458C89.2525 24.8568 90.181 25.0562 91.2064 25.0562C92.2774 25.0562 93.2287 24.8568 94.0604 24.458C94.8921 24.0592 95.5928 23.4725 96.1625 22.6978C96.7435 21.9116 97.1822 20.9489 97.4784 19.8096C97.7746 18.6589 97.9227 17.3372 97.9227 15.8447ZM111.026 2.6172L119.263 2.6172C121.132 2.6172 122.71 2.90203 123.997 3.47169C125.296 4.04135 126.281 4.88445 126.954 6.00099C127.637 7.10613 127.979 8.46762 127.979 10.0855C127.979 11.2248 127.745 12.2673 127.278 13.2129C126.823 14.1471 126.162 14.9447 125.296 15.6055C124.441 16.2549 123.416 16.7391 122.22 17.0581L121.297 17.417L113.555 17.417L113.521 14.7339L119.366 14.7339C120.551 14.7339 121.536 14.5288 122.322 14.1187C123.108 13.6971 123.701 13.1331 124.1 12.4268C124.498 11.7204 124.698 10.9399 124.698 10.0855C124.698 9.12843 124.51 8.29102 124.134 7.57325C123.758 6.85548 123.165 6.30291 122.356 5.91554C121.559 5.51677 120.528 5.31739 119.263 5.31739L114.324 5.31739L114.324 27.5L111.026 27.5L111.026 2.6172ZM125.569 27.5L119.519 16.2207L122.955 16.2036L129.09 27.2949L129.09 27.5L125.569 27.5ZM166.883 24.8169L166.883 27.5L153.707 27.5L153.707 24.8169L166.883 24.8169ZM154.373 2.6172L154.373 27.5L151.075 27.5L151.075 2.6172L154.373 2.6172ZM165.14 13.3154L165.14 15.9985L153.707 15.9985L153.707 13.3154L165.14 13.3154ZM166.712 2.6172L166.712 5.31739L153.707 5.31739L153.707 2.6172L166.712 2.6172ZM183.9 23.7231L191.231 2.6172L194.803 2.6172L185.592 27.5L183.045 27.5L183.9 23.7231ZM177.047 2.6172L184.31 23.7231L185.216 27.5L182.669 27.5L173.475 2.6172L177.047 2.6172ZM218.861 24.8169L218.861 27.5L205.684 27.5L205.684 24.8169L218.861 24.8169ZM206.351 2.6172L206.351 27.5L203.053 27.5L203.053 2.6172L206.351 2.6172ZM217.118 13.3154L217.118 15.9985L205.684 15.9985L205.684 13.3154L217.118 13.3154ZM218.69 2.6172L218.69 5.3174L205.684 5.31739L205.684 2.6172L218.69 2.6172ZM227.845 2.6172L236.082 2.6172C237.951 2.6172 239.529 2.90203 240.816 3.47169C242.115 4.04136 243.101 4.88445 243.773 6.00099C244.456 7.10613 244.798 8.46762 244.798 10.0855C244.798 11.2248 244.565 12.2673 244.098 13.2129C243.642 14.1471 242.981 14.9447 242.115 15.6055C241.261 16.2549 240.235 16.7391 239.039 17.0581L238.116 17.417L230.374 17.417L230.34 14.7339L236.185 14.7339C237.37 14.7339 238.355 14.5288 239.142 14.1187C239.928 13.6971 240.52 13.1331 240.919 12.4268C241.318 11.7204 241.517 10.94 241.517 10.0855C241.517 9.12843 241.329 8.29103 240.953 7.57325C240.577 6.85548 239.985 6.30291 239.176 5.91554C238.378 5.51678 237.347 5.3174 236.082 5.3174L231.143 5.3174L231.143 27.5L227.845 27.5L227.845 2.6172ZM242.389 27.5L236.339 16.2207L239.774 16.2036L245.909 27.2949L245.909 27.5L242.389 27.5ZM254.637 2.6172L261.097 15.1099L267.574 2.6172L271.317 2.6172L262.738 18.2031L262.738 27.5L259.439 27.5L259.439 18.2031L250.86 2.6172L254.637 2.6172ZM298.058 14.2725L298.058 15.8447C298.058 17.7132 297.824 19.388 297.357 20.8692C296.89 22.3503 296.218 23.6092 295.34 24.646C294.463 25.6828 293.409 26.4746 292.179 27.0215C290.96 27.5684 289.593 27.8418 288.077 27.8418C286.608 27.8418 285.257 27.5684 284.027 27.0215C282.808 26.4746 281.748 25.6828 280.848 24.646C279.96 23.6092 279.27 22.3503 278.78 20.8691C278.29 19.388 278.045 17.7132 278.045 15.8447L278.045 14.2725C278.045 12.404 278.285 10.7349 278.763 9.26515C279.253 7.78403 279.942 6.52508 280.831 5.4883C281.72 4.44012 282.774 3.64259 283.993 3.09572C285.223 2.54884 286.573 2.27541 288.043 2.27541C289.558 2.27541 290.926 2.54884 292.145 3.09572C293.375 3.64259 294.429 4.44012 295.306 5.4883C296.195 6.52508 296.873 7.78403 297.34 9.26515C297.818 10.7349 298.058 12.404 298.058 14.2725ZM294.794 15.8447L294.794 14.2383C294.794 12.7572 294.64 11.447 294.332 10.3076C294.036 9.16831 293.597 8.21128 293.016 7.43654C292.435 6.6618 291.723 6.07505 290.88 5.67628C290.048 5.27752 289.103 5.07814 288.043 5.07814C287.018 5.07814 286.089 5.27752 285.257 5.67628C284.437 6.07505 283.731 6.6618 283.138 7.43654C282.557 8.21128 282.107 9.16831 281.788 10.3076C281.469 11.447 281.31 12.7572 281.31 14.2383L281.31 15.8447C281.31 17.3373 281.469 18.6589 281.788 19.8096C282.107 20.9489 282.563 21.9116 283.155 22.6978C283.759 23.4725 284.471 24.0593 285.292 24.458C286.123 24.8568 287.052 25.0562 288.077 25.0562C289.148 25.0562 290.1 24.8568 290.931 24.458C291.763 24.0593 292.464 23.4725 293.033 22.6978C293.614 21.9116 294.053 20.9489 294.349 19.8096C294.645 18.6589 294.794 17.3373 294.794 15.8447ZM327.037 2.61721L327.037 27.5L323.722 27.5L311.195 8.30812L311.195 27.5L307.897 27.5L307.897 2.6172L311.195 2.6172L323.773 21.8604L323.773 2.61721L327.037 2.61721ZM353.59 24.8169L353.59 27.5L340.414 27.5L340.414 24.8169L353.59 24.8169ZM341.08 2.61721L341.08 27.5L337.782 27.5L337.782 2.61721L341.08 2.61721ZM351.847 13.3154L351.847 15.9985L340.414 15.9985L340.414 13.3154L351.847 13.3154ZM353.419 2.61721L353.419 5.3174L340.414 5.3174L340.414 2.61721L353.419 2.61721Z" fill="white"/>
</g>
</g>
<defs>
<filter id="filter0_d_1_2" x="-0.872559" y="2.27539" width="358.463" height="33.5664" filterUnits="userSpaceOnUse" color-interpolation-filters="sRGB">
<feFlood flood-opacity="0" result="BackgroundImageFix"/>
<feColorMatrix in="SourceAlpha" type="matrix" values="0 0 0 0 0 0 0 0 0 0 0 0 0 0 0 0 0 0 127 0" result="hardAlpha"/>
<feOffset dy="4"/>
<feGaussianBlur stdDeviation="2"/>
<feComposite in2="hardAlpha" operator="out"/>
<feColorMatrix type="matrix" values="0 0 0 0 0 0 0 0 0 0 0 0 0 0 0 0 0 0 0.25 0"/>
<feBlend mode="normal" in2="BackgroundImageFix" result="effect1_dropShadow_1_2"/>
<feBlend mode="normal" in="SourceGraphic" in2="effect1_dropShadow_1_2" result="shape"/>
</filter>
<clipPath id="clip0_1_2">
<rect width="359" height="31" fill="white"/>
</clipPath>
</defs>
</svg>
