<svg width="494" height="225" viewBox="0 0 494 225" fill="none" xmlns="http://www.w3.org/2000/svg">
<path d="M271.2 23.8102C271.3 28.2102 267.8 31.8102 263.4 31.9102C259 31.9102 255.5 28.4101 255.4 24.0101C255.3 19.7101 258.8 16.1101 263.2 16.0101C267.6 16.0101 271.2 19.5101 271.2 23.8102V23.8102Z" fill="#1E78C2"/>
<path d="M164 23.6101C164.1 28.0101 160.7 31.6101 156.3 31.8101C152 32.0101 148.3 28.6101 148.1 24.2101C148 19.8101 151.4 16.1101 155.8 16.0101C160.1 15.8101 163.8 19.2101 164 23.6101Z" fill="#1E78C2"/>
<path fill-rule="evenodd" clip-rule="evenodd" d="M286.6 23.7101C286.8 36.5101 276.5 47.1101 263.6 47.2101C250.7 47.4101 240.2 37.1101 240 24.2101C239.9 11.4101 250.2 0.810139 263 0.710139C275.9 0.510139 286.4 10.8101 286.6 23.7101ZM278.9 23.8101C278.7 15.2101 271.7 8.31015 263.1 8.41015C254.5 8.51015 247.7 15.6101 247.8 24.1101C247.9 32.7101 254.9 39.6101 263.5 39.5101C272.1 39.4101 279 32.3101 278.9 23.8101V23.8101Z" fill="#1E78C2"/>
<path d="M250.6 2.21014C243 6.61014 238 14.9102 238.1 24.3102C238.2 32.9102 242.7 40.5101 249.4 45.0101L170.3 46.0101C171.7 45.2101 173 44.3102 174.2 43.3102C180 38.4102 183.3 31.3101 183.2 23.7101C183.1 17.0101 180.4 10.7101 175.6 6.01013C174.533 4.94347 173.4 4.01014 172.2 3.21014L250.6 2.21014Z" fill="#FFA12E"/>
<path d="M136.9 118.41C135.9 109.71 130.4 101.71 121.8 98.0101C113.9 94.6101 105.1 95.6102 98.3 99.9102L129.8 27.3102C129.933 28.8435 130.2 30.3768 130.6 31.9102C132.7 39.2102 137.9 45.1101 144.8 48.1101C151 50.8101 157.9 50.9102 164.1 48.4102C165.5 47.8768 166.8 47.2435 168 46.5101L136.9 118.41Z" fill="#FFA12E"/>
<path fill-rule="evenodd" clip-rule="evenodd" d="M179.3 23.0101C179.8 35.9101 169.8 46.7101 156.9 47.2101C144.1 47.6101 133.3 37.6102 132.8 24.8102C132.3 11.9102 142.3 1.11014 155.2 0.61014C168 0.11014 178.9 10.2101 179.3 23.0101ZM171.6 23.3102C171.3 14.7102 164.1 8.01016 155.5 8.41016C146.9 8.71016 140.2 15.9101 140.5 24.5101C140.8 33.0101 148.1 39.7102 156.6 39.4102C165.2 39.1102 171.9 31.9102 171.6 23.3102Z" fill="#1E78C2"/>
<path d="M115.7 116.81C119.1 119.61 119.6 124.61 116.9 128.01C114.1 131.41 109.2 131.91 105.7 129.21C102.3 126.41 101.8 121.51 104.5 118.01C107.3 114.61 112.3 114.11 115.7 116.81Z" fill="#1E78C2"/>
<path d="M135.7 126.51L171.1 126.11C185 126.01 196.4 137.21 196.5 151.01L25.5 152.71C25.3 138.81 36.5 127.51 50.4 127.31L85.8 127.01C86.8 133.11 90 138.71 94.9 142.71C105.7 151.41 121.6 149.61 130.3 138.81C133.2 135.31 135 131.01 135.7 126.51V126.51Z" fill="#FFA12E"/>
<path fill-rule="evenodd" clip-rule="evenodd" d="M125.3 104.91C135.3 112.91 136.9 127.61 128.9 137.61C120.8 147.61 106.1 149.21 96.1 141.21C86.1 133.11 84.5 118.41 92.6 108.41C100.6 98.4102 115.3 96.8102 125.3 104.91V104.91ZM120.5 110.91C113.8 105.51 104 106.61 98.6 113.31C93.2 120.01 94.3 129.71 101 135.11C107.7 140.51 117.4 139.41 122.8 132.81C128.2 126.11 127.1 116.31 120.5 110.91Z" fill="#1E78C2"/>
<path d="M207.7 193.01L14.8 194.91L14.7 189.81C14.5 171.21 29.5 155.91 48.2 155.71L173.6 154.51C192.2 154.31 207.5 169.31 207.7 187.91V193.01Z" fill="#3B4040"/>
<path d="M493.8 215.01C493.8 220.21 489.6 224.41 484.4 224.41H9.5C4.3 224.41 0 220.21 0 215.01C0 209.81 4.3 205.51 9.5 205.51H484.4C489.6 205.51 493.8 209.81 493.8 215.01Z" fill="#3B4040"/>
<path d="M402.6 17.0101L415.1 19.4101L403.4 19.2101L399.2 19.1101C396.2 11.0101 388.4 5.11015 379.2 4.91015C367.3 4.81015 357.4 14.3101 357.3 26.3101C357.1 38.2101 366.7 48.0101 378.6 48.2101C387.8 48.3101 395.8 42.7101 399 34.6101V34.4101L414.9 34.6101L402.4 36.6101C398.5 45.8101 389.2 52.3101 378.5 52.1101C364.4 51.9101 353.2 40.3101 353.4 26.2101C353.6 12.1101 365.2 0.810122 379.3 1.01012C389.9 1.21012 398.9 7.81012 402.6 17.0101V17.0101Z" fill="#3B4040"/>
<path d="M298.8 32.4102C300.8 32.4102 302.4 34.0101 302.4 36.0101C302.3 38.0101 300.7 39.6101 298.7 39.5101C296.8 39.5101 295.2 37.9102 295.2 35.9102C295.2 33.9102 296.9 32.4102 298.8 32.4102Z" fill="#FFA12E"/>
<path fill-rule="evenodd" clip-rule="evenodd" d="M280.9 1.31015L354.1 12.5101C351.3 16.5101 349.6 21.4101 349.6 26.7101C349.5 32.6101 351.4 38.1101 354.8 42.5101L277 49.1101C278.533 48.3101 280 47.3435 281.4 46.2101C288.1 41.0101 292.1 33.2101 292.3 24.7101C292.5 17.2101 289.8 10.0101 284.6 4.51013C283.467 3.31013 282.233 2.24348 280.9 1.31015V1.31015ZM290.6 6.41016C294.1 11.7102 296 17.9102 295.9 24.4102C295.9 24.5435 295.9 24.6768 295.9 24.8102C295.7 32.1102 293 39.0101 288.4 44.5101L348.7 39.5101C346.9 35.5101 345.9 31.1101 346 26.6101C346 22.7101 346.9 18.8101 348.5 15.2101L290.6 6.41016Z" fill="#FFA12E"/>
</svg>
