<svg width="458" height="208" viewBox="0 0 458 208" fill="none" xmlns="http://www.w3.org/2000/svg">
<path fill-rule="evenodd" clip-rule="evenodd" d="M250.8 8.91011C258.2 12.6101 261.3 21.6102 257.6 29.0102C253.9 36.4102 244.9 39.5101 237.5 35.8101C230.1 32.1101 227.1 23.1102 230.7 15.7102C234.4 8.31015 243.4 5.21011 250.8 8.91011ZM248.1 14.3101C243.7 12.2101 238.3 14.0101 236.2 18.4101C234 22.8101 235.8 28.2101 240.2 30.3101C244.6 32.5101 250 30.7101 252.2 26.3101C254.4 21.9101 252.5 16.5101 248.1 14.3101Z" fill="#3B4040"/>
<path d="M245.9 18.8101C247.9 19.8101 248.6 22.1101 247.7 24.1101C246.7 26.0101 244.4 26.81 242.4 25.91C240.5 24.91 239.7 22.5101 240.6 20.6101C241.6 18.7101 244 17.9101 245.9 18.8101Z" fill="#3B4040"/>
<path d="M345.3 55.7101L332.9 81.1102L310.7 70.3101L323.1 44.9101L345.3 55.7101Z" fill="#3B4040"/>
<path d="M369.5 55.3101C379.6 60.2101 385 71.0102 383.4 81.6102L379.7 79.8101C380.5 71.3101 376 62.7101 367.9 58.8101C357.3 53.6101 344.5 58.0102 339.4 68.6102C334.3 79.1102 338.6 91.9102 349.2 97.0102C357.4 101.01 366.8 99.3101 373.1 93.4101L376.8 95.2102C369.4 103.01 357.6 105.41 347.5 100.51C335 94.4102 329.9 79.4101 335.9 66.9101C342 54.4101 357.1 49.2101 369.5 55.3101V55.3101Z" fill="#3B4040"/>
<path d="M319.4 69.0102L318 72.0102L238 33.0102L239.5 30.0102L319.4 69.0102Z" fill="#3B4040"/>
<path d="M328.7 49.9101L327.3 52.9101L247.3 13.9101L248.8 10.9101L328.7 49.9101Z" fill="#3B4040"/>
<path d="M251.4 21.9101C251.5 26.0101 248.2 29.3101 244.2 29.4101C240.1 29.4101 236.8 26.2102 236.8 22.1102C236.7 18.1102 239.9 14.8101 244 14.7101C248 14.7101 251.4 17.9101 251.4 21.9101Z" fill="#1E78C2"/>
<path d="M152.2 21.7101C152.3 25.8101 149.2 29.2101 145.1 29.3101C141.1 29.5101 137.7 26.3101 137.6 22.3101C137.4 18.2101 140.6 14.8101 144.6 14.7101C148.6 14.5101 152 17.7101 152.2 21.7101Z" fill="#1E78C2"/>
<path fill-rule="evenodd" clip-rule="evenodd" d="M265.6 21.8101C265.8 33.7101 256.3 43.4102 244.4 43.6102C232.5 43.7102 222.7 34.2101 222.5 22.3101C222.4 10.4101 231.9 0.61021 243.8 0.51021C255.7 0.31021 265.5 9.91014 265.6 21.8101V21.8101ZM258.5 21.9101C258.4 13.9101 251.8 7.61016 243.9 7.71016C236 7.81016 229.6 14.3102 229.7 22.2102C229.8 30.2102 236.3 36.5101 244.3 36.4101C252.2 36.3101 258.6 29.8101 258.5 21.9101Z" fill="#1E78C2"/>
<path d="M232.3 1.9101C225.3 6.0101 220.7 13.7101 220.8 22.3101C220.9 30.3101 225 37.4102 231.2 41.5102L158.1 42.4101C159.367 41.7434 160.567 40.9101 161.7 39.9101C167 35.4101 170 28.8101 170 21.8101C169.9 15.6101 167.4 9.8101 162.9 5.4101C161.9 4.47676 160.867 3.61012 159.8 2.81012L232.3 1.9101Z" fill="#FFA12E"/>
<path d="M127.1 109.41C126.2 101.41 121.2 94.0102 113.2 90.5102C105.9 87.4102 97.8 88.3101 91.5 92.3101L120.6 25.1102C120.733 26.5768 121 28.0101 121.4 29.4101C123.3 36.1101 128.1 41.6101 134.5 44.4101C140.2 46.9101 146.6 47.0101 152.4 44.7101C153.667 44.1768 154.867 43.5768 156 42.9101L127.1 109.41Z" fill="#FFA12E"/>
<path fill-rule="evenodd" clip-rule="evenodd" d="M166.4 21.2101C166.8 33.1101 157.6 43.1102 145.7 43.5102C133.8 44.0102 123.8 34.7101 123.3 22.8101C122.9 10.9101 132.2 0.91016 144.1 0.51016C156 0.0101598 166 9.31011 166.4 21.2101V21.2101ZM159.2 21.5102C158.9 13.5102 152.3 7.31014 144.3 7.61014C136.4 7.91014 130.2 14.6102 130.5 22.5102C130.8 30.5102 137.5 36.6101 145.4 36.4101C153.3 36.1101 159.5 29.4102 159.2 21.5102Z" fill="#1E78C2"/>
<path d="M107.5 108.01C110.7 110.51 111.2 115.11 108.6 118.31C106.1 121.41 101.5 121.91 98.3 119.41C95.2 116.81 94.6999 112.21 97.1999 109.11C99.7999 105.91 104.4 105.41 107.5 108.01Z" fill="#1E78C2"/>
<path d="M126 116.91L158.8 116.61C171.7 116.41 182.2 126.81 182.3 139.61L24.1 141.21C24 128.31 34.3 117.81 47.1 117.71L79.9 117.31C80.8 123.01 83.7999 128.21 88.2999 131.81C98.2999 139.91 113 138.31 121.1 128.31C123.7 125.01 125.4 121.01 126 116.91V116.91Z" fill="#FFA12E"/>
<path fill-rule="evenodd" clip-rule="evenodd" d="M116.4 96.9101C125.7 104.31 127.2 117.91 119.7 127.21C112.3 136.41 98.7 137.91 89.4 130.41C80.2 123.01 78.7 109.41 86.2 100.21C93.6 90.9102 107.2 89.4101 116.4 96.9101ZM111.9 102.51C105.8 97.5102 96.7 98.5102 91.7 104.71C86.8 110.81 87.7 119.91 93.9 124.91C100.1 129.81 109.2 128.91 114.1 122.71C119.1 116.51 118.1 107.41 111.9 102.51Z" fill="#1E78C2"/>
<path d="M192.7 178.41L14.2 180.11V178.01C14 159.41 29 144.11 47.6 143.91L158.6 142.81C177.2 142.61 192.5 157.61 192.7 176.21V178.41Z" fill="#3B4040"/>
<path d="M457.3 198.71C457.3 203.51 453.4 207.51 448.6 207.51H9.29996C4.49996 207.51 0.599976 203.51 0.599976 198.71C0.599976 193.91 4.49996 190.01 9.29996 190.01H448.6C453.4 190.01 457.3 193.91 457.3 198.71Z" fill="#3B4040"/>
</svg>
