<svg width="457" height="208" viewBox="0 0 457 208" fill="none" xmlns="http://www.w3.org/2000/svg">
<path d="M250.9 21.9101C250.9 26.0101 247.7 29.3101 243.6 29.4101C239.6 29.4101 236.3 26.2102 236.2 22.1102C236.2 18.1102 239.4 14.8101 243.4 14.7101C247.5 14.7101 250.8 17.9101 250.9 21.9101Z" fill="#1E78C2"/>
<path d="M151.6 21.7101C151.8 25.8101 148.6 29.2101 144.6 29.3101C140.6 29.5101 137.2 26.3101 137 22.3101C136.9 18.2101 140 14.8101 144 14.7101C148.1 14.5101 151.5 17.7101 151.6 21.7101Z" fill="#1E78C2"/>
<path d="M324.8 64.4101C324.4 65.2101 323.5 65.6101 322.6 65.4101L251.6 46.4101C255.5 45.1101 259 42.9101 261.9 39.9101C266.7 35.0101 269.2 28.6101 269.2 21.7101C269.1 19.1101 268.7 16.6101 268 14.3101L324.3 62.1102C325 62.7102 325.2 63.7101 324.8 64.4101V64.4101Z" fill="#3B4040"/>
<path fill-rule="evenodd" clip-rule="evenodd" d="M265.1 21.8101C265.2 33.7101 255.7 43.4102 243.8 43.6102C231.9 43.7102 222.1 34.2101 222 22.3101C221.8 10.4101 231.4 0.61021 243.3 0.51021C255.2 0.31021 264.9 9.91014 265.1 21.8101ZM257.9 21.9101C257.8 13.9101 251.3 7.61016 243.3 7.71016C235.4 7.81016 229.1 14.3102 229.2 22.2102C229.3 30.2102 235.8 36.5101 243.7 36.4101C251.7 36.3101 258 29.8101 257.9 21.9101V21.9101Z" fill="#1E78C2"/>
<path d="M231.7 1.9101C224.8 6.0101 220.1 13.7101 220.2 22.3101C220.3 30.3101 224.5 37.4102 230.7 41.5102L157.5 42.4101C158.767 41.7434 159.967 40.9101 161.1 39.9101C166.5 35.4101 169.5 28.8101 169.4 21.8101C169.3 15.6101 166.8 9.8101 162.4 5.4101C161.4 4.47676 160.333 3.61012 159.2 2.81012L231.7 1.9101Z" fill="#FFA12E"/>
<path d="M126.6 109.41C125.7 101.41 120.6 94.0102 112.7 90.5102C105.3 87.4102 97.2 88.3101 90.9 92.3101L120 25.1102C120.133 26.5768 120.4 28.0101 120.8 29.4101C122.7 36.1101 127.5 41.6101 134 44.4101C139.7 46.9101 146 47.0101 151.8 44.7101C153.067 44.1768 154.267 43.5768 155.4 42.9101L126.6 109.41Z" fill="#FFA12E"/>
<path fill-rule="evenodd" clip-rule="evenodd" d="M165.8 21.2101C166.3 33.1101 157 43.1102 145.1 43.5102C133.2 44.0102 123.2 34.7101 122.8 22.8101C122.4 10.9101 131.6 0.91016 143.5 0.51016C155.4 0.0101598 165.4 9.31011 165.8 21.2101ZM158.7 21.5102C158.4 13.5102 151.7 7.31014 143.8 7.61014C135.9 7.91014 129.7 14.6102 130 22.5102C130.3 30.5102 136.9 36.6101 144.9 36.4101C152.8 36.1101 159 29.4102 158.7 21.5102Z" fill="#1E78C2"/>
<path d="M107 108.01C110.1 110.51 110.6 115.11 108.1 118.31C105.5 121.41 100.9 121.91 97.8 119.41C94.6 116.81 94.1001 112.21 96.7001 109.11C99.2001 105.91 103.8 105.41 107 108.01Z" fill="#1E78C2"/>
<path d="M125.5 116.91L158.3 116.61C171.1 116.41 181.6 126.81 181.8 139.61L23.5 141.21C23.4 128.31 33.7 117.81 46.6 117.71L79.3 117.31C80.2 123.01 83.2 128.21 87.8 131.81C97.8 139.91 112.5 138.31 120.5 128.31C123.2 125.01 124.9 121.01 125.5 116.91V116.91Z" fill="#FFA12E"/>
<path fill-rule="evenodd" clip-rule="evenodd" d="M115.9 96.9101C125.2 104.31 126.6 117.91 119.2 127.21C111.7 136.41 98.1001 137.91 88.9001 130.41C79.6001 123.01 78.1 109.41 85.6 100.21C93.1 90.9102 106.6 89.4101 115.9 96.9101ZM111.4 102.51C105.2 97.5102 96.2001 98.5102 91.2001 104.71C86.2001 110.81 87.2001 119.91 93.4001 124.91C99.5001 129.81 108.6 128.91 113.6 122.71C118.6 116.51 117.6 107.41 111.4 102.51Z" fill="#1E78C2"/>
<path d="M192.1 178.41L13.6 180.11V178.01C13.4 159.41 28.4 144.11 47.1 143.91L158 142.81C176.7 142.61 191.9 157.61 192.1 176.21V178.41Z" fill="#3B4040"/>
<path d="M456.8 198.71C456.8 203.51 452.9 207.51 448 207.51H8.70007C3.90007 207.51 0 203.51 0 198.71C0 193.91 3.90007 190.01 8.70007 190.01H448C452.9 190.01 456.8 193.91 456.8 198.71Z" fill="#3B4040"/>
</svg>
