<svg width="427" height="290" viewBox="0 0 427 290" fill="none" xmlns="http://www.w3.org/2000/svg">
<path d="M302.2 27.8102C302.2 32.8102 298.2 36.9102 293.2 36.9102C288.2 36.9102 284.1 32.9102 284.1 27.9102C284.1 22.9102 288.1 18.8102 293.1 18.8102C298.1 18.8102 302.2 22.8102 302.2 27.8102Z" fill="#1E78C2"/>
<path d="M179.6 26.3101C179.7 31.3101 175.8 35.5101 170.8 35.6101C165.8 35.7101 161.7 31.8101 161.5 26.8101C161.4 21.8101 165.3 17.7101 170.3 17.5101C175.3 17.4101 179.5 21.3101 179.6 26.3101Z" fill="#1E78C2"/>
<path fill-rule="evenodd" clip-rule="evenodd" d="M319.8 27.8102C319.8 42.5101 307.9 54.4101 293.2 54.5101C278.5 54.5101 266.6 42.6102 266.5 27.9102C266.5 13.2102 278.4 1.31014 293.1 1.21014C307.8 1.21014 319.7 13.1102 319.8 27.8102ZM310.9 27.8102C310.9 18.0101 302.9 10.1101 293.1 10.1101C283.3 10.1101 275.4 18.1102 275.4 27.9102C275.4 37.7102 283.4 45.6101 293.2 45.6101C303 45.6101 310.9 37.6102 310.9 27.8102Z" fill="#1E78C2"/>
<path d="M278.8 2.81015C270.1 7.81015 264.3 17.2102 264.3 27.9102C264.4 37.8102 269.4 46.5101 277 51.7101L186.6 52.0101C188.2 51.1435 189.7 50.1435 191.1 49.0101C197.8 43.4101 201.6 35.3101 201.6 26.6101C201.5 19.0101 198.5 11.7102 193.1 6.31015C191.9 5.11015 190.6 4.04347 189.2 3.11014L278.8 2.81015Z" fill="#FFA12E"/>
<path d="M292.6 157.71C287.6 157.71 283.5 153.71 283.5 148.71C283.4 143.71 287.4 139.61 292.4 139.61C297.4 139.51 301.5 143.51 301.6 148.51C301.6 153.51 297.6 157.61 292.6 157.71V157.71Z" fill="#1E78C2"/>
<path fill-rule="evenodd" clip-rule="evenodd" d="M292.9 175.21C278.2 175.41 266.1 163.61 265.9 148.91C265.7 134.21 277.5 122.21 292.2 122.01C306.9 121.81 319 133.61 319.2 148.31C319.3 163.01 307.6 175.11 292.9 175.21ZM292.7 166.41C302.6 166.31 310.4 158.21 310.3 148.41C310.2 138.61 302.1 130.81 292.3 130.91C282.5 131.01 274.7 139.01 274.8 148.81C274.9 158.71 282.9 166.51 292.7 166.41Z" fill="#1E78C2"/>
<path d="M317.4 134.11C312.3 125.51 302.9 119.71 292.2 119.81C282.3 119.91 273.6 125.11 268.5 132.71L267.4 42.3102C268.267 43.9102 269.3 45.4102 270.5 46.8102C276.1 53.4102 284.2 57.1101 292.9 57.0101C300.6 56.9101 307.8 53.9102 313.2 48.3102C314.333 47.1102 315.367 45.8435 316.3 44.5101L317.4 134.11Z" fill="#FFA12E"/>
<path d="M147.6 134.41C146.6 124.41 140.4 115.21 130.6 110.91C121.6 106.91 111.6 107.91 103.7 112.71L140.5 30.1101C140.633 31.9101 140.933 33.6768 141.4 35.4102C143.7 43.8102 149.6 50.6101 157.5 54.1101C164.5 57.3101 172.3 57.5101 179.5 54.7101C181.1 54.1101 182.6 53.3768 184 52.5101L147.6 134.41Z" fill="#FFA12E"/>
<path fill-rule="evenodd" clip-rule="evenodd" d="M197.2 25.8101C197.6 40.5101 186 52.8101 171.3 53.2101C156.6 53.6101 144.4 42.0101 144 27.3101C143.6 12.6101 155.1 0.410126 169.8 0.0101257C184.5 -0.389874 196.8 11.1101 197.2 25.8101ZM188.3 26.1101C188.1 16.3101 179.9 8.51014 170.1 8.81014C160.3 9.11014 152.5 17.2101 152.8 27.0101C153.1 36.9101 161.2 44.6101 171 44.3101C180.9 44.0101 188.6 35.9101 188.3 26.1101Z" fill="#1E78C2"/>
<path d="M123.4 132.31C127.2 135.51 127.8 141.21 124.6 145.11C121.4 148.91 115.7 149.51 111.9 146.31C108 143.11 107.5 137.41 110.6 133.61C113.8 129.71 119.5 129.21 123.4 132.31Z" fill="#1E78C2"/>
<path d="M146.1 143.61H186.6C202.5 143.61 215.4 156.51 215.4 172.31H19.9C19.9 156.51 32.7 143.61 48.6 143.61H89.1C90.2 150.61 93.8 157.01 99.3 161.61C111.6 171.71 129.8 169.91 139.9 157.61C143.2 153.61 145.3 148.71 146.1 143.61Z" fill="#FFA12E"/>
<path fill-rule="evenodd" clip-rule="evenodd" d="M134.5 118.81C145.9 128.11 147.5 144.91 138.2 156.21C128.9 167.61 112.1 169.21 100.7 159.91C89.4001 150.61 87.7 133.81 97.1 122.41C106.4 111.11 123.2 109.41 134.5 118.81V118.81ZM128.9 125.61C121.3 119.41 110.1 120.51 103.9 128.11C97.7001 135.61 98.8001 146.81 106.4 153.11C113.9 159.31 125.1 158.21 131.3 150.61C137.6 143.01 136.5 131.81 128.9 125.61Z" fill="#1E78C2"/>
<path d="M227.7 220.41H7.20007V176.01H227.7V220.41Z" fill="#3B4040"/>
<path fill-rule="evenodd" clip-rule="evenodd" d="M57.9 257.81C57.9 270.71 47.5 281.11 34.6 281.11C21.8 281.11 11.3 270.71 11.3 257.81C11.3 244.91 21.8 234.51 34.6 234.51C47.5 234.51 57.9 244.91 57.9 257.81ZM48.5 257.81C48.5 250.11 42.3 243.91 34.6 243.91C27 243.91 20.8 250.11 20.8 257.81C20.8 265.41 27 271.71 34.6 271.71C42.3 271.71 48.5 265.41 48.5 257.81Z" fill="#3B4040"/>
<path d="M40.7001 257.81C40.7001 261.21 38 263.91 34.6 263.91C31.3 263.91 28.5 261.21 28.5 257.81C28.5 254.41 31.3 251.71 34.6 251.71C38 251.71 40.7001 254.41 40.7001 257.81Z" fill="#3B4040"/>
<path fill-rule="evenodd" clip-rule="evenodd" d="M113.2 257.81C113.2 270.71 102.7 281.11 89.8 281.11C77 281.11 66.5 270.71 66.5 257.81C66.5 244.91 77 234.51 89.8 234.51C102.7 234.51 113.2 244.91 113.2 257.81ZM103.7 257.81C103.7 250.11 97.5 243.91 89.8 243.91C82.2 243.91 76 250.11 76 257.81C76 265.41 82.2 271.71 89.8 271.71C97.5 271.71 103.7 265.41 103.7 257.81Z" fill="#3B4040"/>
<path d="M95.9 257.81C95.9 261.21 93.2 263.91 89.8 263.91C86.5 263.91 83.7001 261.21 83.7001 257.81C83.7001 254.41 86.5 251.71 89.8 251.71C93.2 251.71 95.9 254.41 95.9 257.81Z" fill="#3B4040"/>
<path fill-rule="evenodd" clip-rule="evenodd" d="M168.4 257.81C168.4 270.71 157.9 281.11 145.1 281.11C132.2 281.11 121.7 270.71 121.7 257.81C121.7 244.91 132.2 234.51 145.1 234.51C157.9 234.51 168.4 244.91 168.4 257.81ZM158.9 257.81C158.9 250.11 152.7 243.91 145.1 243.91C137.4 243.91 131.2 250.11 131.2 257.81C131.2 265.41 137.4 271.71 145.1 271.71C152.7 271.71 158.9 265.41 158.9 257.81Z" fill="#3B4040"/>
<path d="M151.2 257.81C151.2 261.21 148.4 263.91 145.1 263.91C141.7 263.91 138.9 261.21 138.9 257.81C138.9 254.41 141.7 251.71 145.1 251.71C148.4 251.71 151.2 254.41 151.2 257.81Z" fill="#3B4040"/>
<path fill-rule="evenodd" clip-rule="evenodd" d="M223.6 257.81C223.6 270.71 213.1 281.11 200.3 281.11C187.4 281.11 176.9 270.71 176.9 257.81C176.9 244.91 187.4 234.51 200.3 234.51C213.1 234.51 223.6 244.91 223.6 257.81ZM214.1 257.81C214.1 250.11 207.9 243.91 200.3 243.91C192.6 243.91 186.4 250.11 186.4 257.81C186.4 265.41 192.6 271.71 200.3 271.71C207.9 271.71 214.1 265.41 214.1 257.81Z" fill="#3B4040"/>
<path d="M206.4 257.81C206.4 261.21 203.6 263.91 200.3 263.91C196.9 263.91 194.2 261.21 194.2 257.81C194.2 254.41 196.9 251.71 200.3 251.71C203.6 251.71 206.4 254.41 206.4 257.81Z" fill="#3B4040"/>
<path fill-rule="evenodd" clip-rule="evenodd" d="M234.3 257.81C234.3 275.11 220.3 289.11 203 289.11H31.9C14.6 289.11 0.599976 275.11 0.599976 257.81C0.599976 240.51 14.6 226.51 31.9 226.51H203C220.3 226.51 234.3 240.51 234.3 257.81ZM229.7 257.81C229.7 243.11 217.7 231.11 203 231.11H31.9C17.2 231.11 5.20007 243.11 5.20007 257.81C5.20007 272.51 17.2 284.51 31.9 284.51H203C217.7 284.51 229.7 272.51 229.7 257.81Z" fill="#3B4040"/>
<path d="M417.1 247.61L426.2 258.91L416.1 250.11L412.6 246.91C416 237.61 413.6 226.71 405.7 219.71C395.4 210.71 379.8 211.71 370.8 222.01C361.8 232.21 362.8 247.91 373.1 256.91C381 263.81 392.1 264.81 400.9 260.21L401 260.01L414.7 272.01L402.4 264.51C392.1 269.61 379.3 268.31 370.1 260.21C358 249.61 356.8 231.11 367.4 219.01C378.1 206.91 396.5 205.71 408.7 216.41C417.8 224.41 420.7 236.81 417.1 247.61V247.61Z" fill="#3B4040"/>
<path d="M315.5 183.91C317.2 185.41 317.3 188.01 315.8 189.71C314.4 191.41 311.8 191.51 310.1 190.11C308.4 188.61 308.2 186.01 309.7 184.31C311.2 182.61 313.8 182.41 315.5 183.91V183.91Z" fill="#FFA12E"/>
<path fill-rule="evenodd" clip-rule="evenodd" d="M323 143.61L378.3 207.61C372.9 209.11 367.8 212.11 363.8 216.61C359.3 221.71 356.9 228.01 356.6 234.31L284.1 182.21C286.033 182.677 288.033 182.943 290.1 183.01C299.7 183.51 309 179.61 315.5 172.41C321.3 166.01 324.2 157.71 323.8 149.11C323.667 147.244 323.4 145.41 323 143.61ZM327.6 155.21C326.8 162.41 323.8 169.21 318.9 174.81C318.767 174.943 318.667 175.044 318.6 175.11C312.9 181.41 305.5 185.41 297.4 186.71L353.6 227.11C354.9 222.31 357.3 217.81 360.7 213.91C363.7 210.51 367.3 207.81 371.3 205.91L327.6 155.21Z" fill="#FFA12E"/>
</svg>
